<svg width="24" height="24" viewBox="0 0 24 24" fill="none" xmlns="http://www.w3.org/2000/svg">
    <circle cx="12" cy="12" r="11.5" stroke="#071832" stroke-opacity="0.1"/>
    <path d="M9.11133 9.91797C9.14062 8.47656 10.1602 7.46875 11.959 7.46875C13.6348 7.46875 14.7422 8.40039 14.7422 9.73633C14.7422 10.6211 14.3145 11.2363 13.4883 11.7227C12.709 12.1738 12.4922 12.4609 12.4922 13.0352V13.3457H10.9395L10.9277 13.0059C10.8516 12.0859 11.1738 11.5586 11.9824 11.084C12.7383 10.6328 12.9668 10.3457 12.9668 9.78906C12.9668 9.23242 12.5215 8.82812 11.8535 8.82812C11.1797 8.82812 10.7344 9.25586 10.6992 9.91797H9.11133ZM11.7363 16.1465C11.209 16.1465 10.7812 15.7422 10.7812 15.2266C10.7812 14.7109 11.209 14.3066 11.7363 14.3066C12.2695 14.3066 12.6973 14.7109 12.6973 15.2266C12.6973 15.7422 12.2695 16.1465 11.7363 16.1465Z"
          fill="#39465B"/>
</svg>
