<svg width="24" height="24" viewBox="0 0 24 24" fill="none" xmlns="http://www.w3.org/2000/svg">
    <circle cx="12" cy="12" r="12" fill="#444444"/>
    <path d="M6.43555 5.26332C6.04883 5.26332 1 11.468 1 11.8762C1 12.2844 6.07031 18.4891 6.43555 18.4891C6.80078 18.4891 7.72031 16.7961 7.72031 16.375C7.72031 15.9539 4.07227 12.4348 4.05937 11.8762C4.04648 11.3176 7.72031 7.75122 7.72031 7.37738C7.72031 7.00354 6.82227 5.26332 6.43555 5.26332ZM8.81172 18.3301C9.03516 18.7512 10.2643 18.6559 11.1965 18.3301C11.1965 18.3301 15.416 6.09693 14.9863 5.38363C14.5566 4.67033 13.0742 5.12154 12.6016 5.38363C12.1289 5.64572 8.58828 17.909 8.81172 18.3301ZM17.5645 5.26332C17.1563 5.26332 16.2797 6.89612 16.2797 7.37738C16.2797 7.85864 19.9965 11.1887 19.9406 11.8762C19.8848 12.5637 16.2797 15.7176 16.2797 16.375C16.2797 17.0324 17.1992 18.4891 17.5645 18.4891C17.9297 18.4891 23 12.3489 23 11.8762C23 11.4035 17.9727 5.26332 17.5645 5.26332Z"
          fill="#E8BE6A"/>
</svg>
