<svg width="43" height="36" viewBox="0 0 43 36" fill="none" xmlns="http://www.w3.org/2000/svg">
    <g clip-path="url(#clip0_1011_62)">
        <path fill-rule="evenodd" clip-rule="evenodd"
              d="M23.001 21.9676C21.9015 23.2139 20.2926 24 18.5 24C15.1863 24 12.5 21.3137 12.5 18V0L6.5 5.05263L0.5 0V18C0.5 27.9411 8.55887 36 18.5 36C22.4208 36 26.0488 34.7464 29.0051 32.6182C25.9949 29.8379 23.8453 26.1395 23.001 21.9676Z"
              fill="url(#paint0_linear_1011_62)"/>
        <path fill-rule="evenodd" clip-rule="evenodd"
              d="M24.5 18V5.05263L30.5 0L36.5 5.05263V18C36.5 21.3137 39.1863 24 42.5 24V36C32.5589 36 24.5 27.9411 24.5 18Z"
              fill="url(#paint1_linear_1011_62)"/>
    </g>
    <defs>
        <linearGradient id="paint0_linear_1011_62" x1="19" y1="31" x2="19" y2="3" gradientUnits="userSpaceOnUse">
            <stop stop-color="#FFFF00"/>
            <stop offset="1" stop-color="#BC2C71"/>
        </linearGradient>
        <linearGradient id="paint1_linear_1011_62" x1="32" y1="10" x2="34" y2="32.5" gradientUnits="userSpaceOnUse">
            <stop stop-color="#007ABE"/>
            <stop offset="1" stop-color="#37B934"/>
        </linearGradient>
        <clipPath id="clip0_1011_62">
            <rect width="43" height="36" fill="white"/>
        </clipPath>
    </defs>
</svg>
